<?xml version="1.0" standalone="no"?><!DOCTYPE svg PUBLIC "-//W3C//DTD SVG 1.1//EN" "http://www.w3.org/Graphics/SVG/1.1/DTD/svg11.dtd"><svg t="1684134341776" class="icon" viewBox="0 0 1024 1024" version="1.1" xmlns="http://www.w3.org/2000/svg" p-id="3706" xmlns:xlink="http://www.w3.org/1999/xlink" width="200" height="200"><path d="M883.2 151.46666666666667c-113.17333333333333 0-201.38666666666668-27.733333333333334-255.36-50.986666666666665-57.81333333333333-24.853333333333335-90.13333333333333-50.13333333333333-91.62666666666667-51.306666666666665-14.186666666666667-11.626666666666667-34.13333333333333-11.626666666666667-48.31999999999999 0-1.4933333333333332 1.1733333333333333-33.81333333333333 26.453333333333333-91.62666666666667 51.306666666666665C342.18666666666667 123.73333333333333 253.97333333333336 151.46666666666667 140.8 151.46666666666667c-21.226666666666667 0-38.4 17.173333333333336-38.4 38.4 0 118.93333333333334 15.146666666666667 231.57333333333332 45.013333333333335 334.61333333333334 25.813333333333333 89.28 62.18666666666666 170.13333333333333 108.05333333333333 240.42666666666668 39.25333333333333 60.16 84.69333333333334 110.93333333333334 131.51999999999998 146.88C432.5333333333333 946.88 475.84000000000003 965.3333333333334 512 965.3333333333334c36.16 0 79.36-18.346666666666664 124.90666666666665-53.12 46.82666666666667-35.733333333333334 92.37333333333332-86.4 131.62666666666667-146.34666666666666 45.86666666666667-70.18666666666667 82.24-151.04 108.05333333333333-240.42666666666668C906.4533333333333 422.18666666666667 921.6 309.3333333333333 921.6 189.86666666666665c0-21.226666666666667-17.173333333333336-38.4-38.4-38.4zM679.4666666666667 430.29333333333335l-174.93333333333334 174.93333333333334c-7.253333333333333 7.253333333333333-16.96 11.2-27.2 11.2s-19.946666666666665-4.053333333333333-27.2-11.2l-105.6-105.6c-15.04-15.04-15.04-39.36 0-54.29333333333333 15.04-15.04 39.36-15.04 54.29333333333333 0l78.4 78.4L625.0666666666666 375.8933333333333c15.04-15.04 39.36-15.04 54.29333333333333 0 15.04 15.146666666666667 15.04 39.46666666666667 0.10666666666666667 54.4z" p-id="3707"></path></svg>